<?xml version="1.0" encoding="UTF-8"?>
<!DOCTYPE svg PUBLIC "-//W3C//DTD SVG 1.1//EN" "http://www.w3.org/Graphics/SVG/1.1/DTD/svg11.dtd">
<!-- Creator: CorelDRAW 2017 -->
<svg xmlns="http://www.w3.org/2000/svg" xml:space="preserve" width="4.23333cm" height="0.846667cm" version="1.1" style="shape-rendering:geometricPrecision; text-rendering:geometricPrecision; image-rendering:optimizeQuality; fill-rule:evenodd; clip-rule:evenodd"
viewBox="0 0 4233 847"
 xmlns:xlink="http://www.w3.org/1999/xlink">
 <defs>
  <style type="text/css">
   <![CDATA[
    .str1 {stroke:white;stroke-width:33.8601}
    .str0 {stroke:#2B2A29;stroke-width:20.0001}
    .str2 {stroke:#5AA2D7;stroke-width:20.0001}
    .fil4 {fill:none}
    .fil1 {fill:#020202}
    .fil3 {fill:#131313}
    .fil0 {fill:#5AA2D7}
    .fil5 {fill:#6FA8DC}
    .fil2 {fill:white}
   ]]>
  </style>
 </defs>
 <g id="Слой_x0020_1">
  <metadata id="CorelCorpID_0Corel-Layer"/>
  <g id="_2423843125600">
   <polygon class="fil0" points="243,218 699,216 698,68 87,70 87,789 700,786 696,638 236,636 238,508 663,505 663,358 236,356 "/>
   <path class="fil0" d="M1613 218l207 3c45,53 91,85 142,140l-2 276 -349 -3 1 -416zm496 500c1,-69 9,-390 -3,-433 -9,-34 -171,-184 -201,-218l-442 4 0 713 582 -1 64 -66z"/>
   <path class="fil1" d="M3348 227c31,-45 99,-65 154,-66 1,54 -16,159 12,196 30,-36 14,-142 14,-196 72,0 109,31 156,52 -39,81 -140,119 -125,167 62,-33 91,-101 159,-134 21,44 50,89 52,157 -55,0 -160,-17 -197,13 38,28 141,11 196,12 -1,54 -20,123 -66,154l-122 -123c-36,-20 -19,-3 -25,-1 -2,20 -11,2 17,32l110 115c-36,47 -96,64 -153,64 -5,-75 10,-163 -15,-196 -18,27 -12,23 -12,88 0,37 1,72 -2,109 -69,-2 -120,-25 -153,-64 21,-30 44,-47 71,-73 66,-63 58,-39 60,-80 -38,2 -12,-12 -80,60 -26,27 -44,50 -74,71 -39,-35 -62,-83 -64,-153l154 -1c44,-3 21,2 43,-12 -15,-11 33,-15 -88,-14 -36,0 -72,1 -108,-2 0,-58 18,-118 64,-153l109 104c26,26 10,26 37,22 3,-8 33,13 -11,-37l-112 -111zm266 -158c-37,-36 -52,-36 -112,-34 -64,3 -63,25 -101,32 -88,15 -113,24 -153,95 -35,63 -43,13 -80,98 -30,67 -8,60 -12,101 -4,42 -33,16 -15,116 10,59 10,67 51,81 -6,85 52,155 135,155 31,107 266,76 311,61 70,-24 30,-36 87,-58 64,-25 120,-65 114,-154 96,-54 34,-155 39,-236 3,-57 -32,-106 -72,-135 -47,-34 -54,-134 -193,-121z"/>
   <path class="fil0" d="M2428 562c9,12 8,19 25,36 10,11 17,16 28,27 204,201 98,163 378,165l214 -217 -1 -504 -146 -1c-5,117 -2,242 -1,360 0,82 -5,79 -48,121 -31,31 -58,59 -89,86 -80,34 -211,-139 -211,-141l-1 -425 -148 1 0 492z"/>
   <path class="fil0" d="M785 781c55,14 544,13 611,3l-2 -145 -461 -5 -1 -566 -147 7 0 707z"/>
   <path class="fil2" d="M3552 400c-23,87 -87,47 -58,-14 39,-3 28,-3 58,14zm7 -20c-16,-48 86,-86 125,-167 -47,-21 -85,-52 -156,-52 0,54 16,160 -14,196 -28,-37 -11,-142 -12,-196 -55,1 -123,21 -154,66l112 111c44,50 14,29 11,37 -28,4 -12,3 -37,-22l-109 -104c-46,35 -64,95 -64,153 36,2 72,2 108,2 121,-1 73,2 88,14 -22,14 1,10 -43,12l-154 1c2,70 26,118 64,153 30,-20 48,-43 74,-71 68,-72 42,-58 80,-60 -1,41 6,17 -60,80 -27,26 -50,44 -71,73 34,39 85,63 153,64 3,-37 2,-72 2,-109 -1,-64 -6,-61 12,-88 26,33 11,121 15,196 57,1 117,-16 153,-64l-110 -115c-28,-29 -19,-11 -17,-32 6,-2 -11,-20 25,1l122 123c46,-31 66,-100 66,-154 -55,0 -158,16 -196,-12 36,-30 142,-13 197,-13 -2,-68 -32,-113 -52,-157 -67,32 -97,101 -159,134z"/>
   <path class="fil2" d="M1611 634l349 3 2 -276c-52,-54 -97,-86 -142,-140l-207 -3 -1 416z"/>
   <polygon class="fil0" points="2195,788 2343,783 2343,70 2194,70 "/>
   <path class="fil3" d="M3552 400c-29,-17 -19,-17 -58,-14 -30,61 35,101 58,14z"/>
  </g>
  <line class="fil4 str0" x1="3249" y1="419" x2="3515" y2= "415" />
  <line class="fil4 str0" x1="3784" y1="414" x2="3533" y2= "414" />
  <line class="fil4 str0" x1="3839" y1="503" x2="3717" y2= "609" />
  <polyline class="fil4 str0" points="3304,614 3515,415 3511,698 "/>
  <polyline class="fil4 str0" points="3516,135 3515,412 3717,213 "/>
  <polyline class="fil4 str0" points="3728,626 3515,404 3327,224 "/>
  <ellipse class="fil4 str0" cx="3515" cy="404" rx="39" ry="40"/>
  <circle class="fil5 str1" cx="3515" cy="401" r="25"/>
  <ellipse class="fil4 str0" cx="3517" cy="405" rx="13" ry="14"/>
  <line class="fil4 str2" x1="2552" y1="498" x2="2552" y2= "425" />
 </g>
</svg>
